<svg xmlns="http://www.w3.org/2000/svg" width="58" height="58" viewBox="0 0 58 58">
  <g id="Group_38671" data-name="Group 38671" transform="translate(-2197 -2043)">
    <path id="Shape" d="M26.58,50H2a2.006,2.006,0,0,1-2-2V7L7,0H34a2.006,2.006,0,0,1,2,2V24.74Z" transform="translate(2197 2043)" fill="#ecf0f1"/>
    <g id="Group_38630" data-name="Group 38630" transform="translate(2197 2043)">
      <path id="Shape-2" data-name="Shape" d="M31,30H6a1,1,0,0,1,0-2H31a1,1,0,0,1,0,2Z" fill="#547580"/>
      <path id="Shape-3" data-name="Shape" d="M28,34H6a1,1,0,0,1,0-2H28a1,1,0,0,1,0,2Z" fill="#547580"/>
      <path id="Shape-4" data-name="Shape" d="M24.47,38H6a1,1,0,0,1,0-2H24.47a1,1,0,1,1,0,2Z" fill="#547580"/>
      <path id="Shape-5" data-name="Shape" d="M24,42H6a1,1,0,0,1,0-2H24a1,1,0,0,1,0,2Z" fill="#547580"/>
      <path id="Shape-6" data-name="Shape" d="M18,46H6a1,1,0,0,1,0-2H18a1,1,0,0,1,0,2Z" fill="#547580"/>
    </g>
    <circle id="Oval" cx="17" cy="17" r="17" transform="translate(2221 2067)" fill="#fc6050"/>
    <path id="Shape-7" data-name="Shape" d="M0,7H5A2,2,0,0,0,7,5V0Z" transform="translate(2197 2043)" fill="#d1d4d1"/>
    <g id="cab" transform="translate(2241.8 2087.8)">
      <g id="Layer_x0020_1" transform="translate(-16.547 -9.981)">
        <g id="_538464864" transform="translate(0 0)">
          <g id="Layer_7">
            <path id="_540094512" d="M148.413,136.776H144.2l.3-.975,3.507-.2Z" transform="translate(-137.039 -135.6)" fill="#1f4966" fill-rule="evenodd"/>
            <g id="Group_38669" data-name="Group 38669" transform="translate(0 1.04)">
              <g id="Group_38632" data-name="Group 38632" transform="translate(17.925 6.002)">
                <g id="Group_38631" data-name="Group 38631">
                  <path id="_540094896" d="M299.8,241.184l.553.048h5.762l.228-1.57-.56-1.307-1.39-.636-2.214-.318s-.941.394-.975.443-.74.823-.74.823l-.429.927Z" transform="translate(-299.8 -237.4)" fill="#b1892e" fill-rule="evenodd"/>
                </g>
              </g>
              <g id="Group_38634" data-name="Group 38634" transform="translate(0.25 5.94)">
                <g id="Group_38633" data-name="Group 38633">
                  <path id="_540094416" d="M44.3,239.959l.436.374,4.13.048h1.508l.18-.048.228-1.57-.56-1.307-1.39-.636-2.214-.318s-.941.394-.975.443-.74.823-.74.823l-.429.927Z" transform="translate(-44.3 -236.5)" fill="#b1892e" fill-rule="evenodd"/>
                </g>
              </g>
              <g id="Group_38636" data-name="Group 38636">
                <g id="Group_38635" data-name="Group 38635">
                  <path id="_540093672" d="M40.75,159.745a11.369,11.369,0,0,1,.09-2.9,2.121,2.121,0,0,0,.415-1.038l.477-2.006a5.453,5.453,0,0,1,1.473-2.3,2.242,2.242,0,0,1,1-.533c2.684-.616,8.3-.235,9.366-.048a11.484,11.484,0,0,1,3.251,1.093,13.457,13.457,0,0,1,2.746,1.771,24.292,24.292,0,0,1,3.5.816c2.47.975,2.449,2.324,2.449,2.324.36.36.3,2.643.3,2.643l.36.36a1.729,1.729,0,0,1-1.252.54s.159-3.362-2.885-3.459c0,0-2.885-.076-2.885,3.459,0,0-10.764-.2-12.154-.021,0,0,.076-3.341-2.864-3.383,0,0-2.739-.131-2.774,3.334C40.93,160.34,40.771,159.766,40.75,159.745Z" transform="translate(-40.679 -150.629)" fill="#f3c01d" fill-rule="evenodd"/>
                </g>
              </g>
              <g id="Group_38638" data-name="Group 38638" transform="translate(19.177 6.957)">
                <g id="Group_38637" data-name="Group 38637">
                  <circle id="_540093600" cx="2.186" cy="2.186" r="2.186" fill="#424242"/>
                </g>
              </g>
              <g id="Group_38640" data-name="Group 38640" transform="translate(19.973 7.753)">
                <g id="Group_38639" data-name="Group 38639">
                  <circle id="_540093360" cx="1.39" cy="1.39" r="1.39" fill="#a5a7aa"/>
                </g>
              </g>
              <g id="Group_38642" data-name="Group 38642" transform="translate(1.274 6.957)">
                <g id="Group_38641" data-name="Group 38641">
                  <circle id="_540092784" cx="2.186" cy="2.186" r="2.186" fill="#424242"/>
                </g>
              </g>
              <g id="Group_38644" data-name="Group 38644" transform="translate(2.07 7.753)">
                <g id="Group_38643" data-name="Group 38643">
                  <circle id="_540093096" cx="1.39" cy="1.39" r="1.39" fill="#a5a7aa"/>
                </g>
              </g>
              <g id="Group_38646" data-name="Group 38646" transform="translate(22.434 4.238)">
                <g id="Group_38645" data-name="Group 38645">
                  <path id="_540092016" d="M365.571,211.894c-.782-.083-.56.519-.56.519.505,1.051,2.331,1.529,2.407,1.55C367.4,213.956,367.411,212.835,365.571,211.894Z" transform="translate(-364.982 -211.886)" fill="#fcf05d" fill-rule="evenodd"/>
                </g>
              </g>
              <g id="Group_38648" data-name="Group 38648" transform="translate(1.904 4.107)">
                <g id="Group_38647" data-name="Group 38647">
                  <circle id="_540092280" cx="0.54" cy="0.54" r="0.54" fill="#b1892e"/>
                </g>
              </g>
              <g id="Group_38650" data-name="Group 38650" transform="translate(0.569 1.707)">
                <g id="Group_38649" data-name="Group 38649">
                  <path id="_540091464" d="M49.384,176.767l-.477,2.006-.007.042c.235,0,.429-.27.519-.415a.634.634,0,0,0,.062-.159c.1-.464.636-2.933.643-2.94A5.583,5.583,0,0,0,49.384,176.767Z" transform="translate(-48.9 -175.3)" fill="#be1e2d" fill-rule="evenodd"/>
                </g>
              </g>
              <g id="Group_38652" data-name="Group 38652" transform="translate(10.508 0.683)">
                <g id="Group_38651" data-name="Group 38651" transform="translate(0)">
                  <path id="_540091848" d="M193.086,163.689a21.263,21.263,0,0,1-.5-3.113.067.067,0,0,1,.069-.076,13.591,13.591,0,0,1,4.4.823c.173.062.5.194.6.235a10.715,10.715,0,0,1,2.67,1.826l.007.007a.461.461,0,0,1,.055.616.127.127,0,0,1-.125.055l-7.111-.325A.083.083,0,0,1,193.086,163.689Z" transform="translate(-192.587 -160.5)" fill="#1f4966" fill-rule="evenodd"/>
                </g>
              </g>
              <g id="Group_38654" data-name="Group 38654" transform="translate(3.774 0.661)">
                <g id="Group_38653" data-name="Group 38653">
                  <path id="_540090408" d="M101.082,163.4a30.111,30.111,0,0,0-.235-3.2.007.007,0,0,0-.007-.007h-.028a36.932,36.932,0,0,0-4.9.187.053.053,0,0,0-.035.014,3.157,3.157,0,0,0-.547,2.947c0,.007.007.014.021.014.131.007,1.141.048,5.679.055h.035C101.076,163.417,101.082,163.41,101.082,163.4Z" transform="translate(-95.232 -160.186)" fill="#1f4966" fill-rule="evenodd"/>
                </g>
              </g>
              <g id="Group_38656" data-name="Group 38656" transform="translate(4.366 4.82)">
                <g id="Group_38655" data-name="Group 38655">
                  <path id="_540091080" d="M105.294,220.632h-1.328a.166.166,0,1,1,0-.332h1.328a.166.166,0,1,1,0,.332Z" transform="translate(-103.8 -220.3)" fill="#b1892e" fill-rule="evenodd"/>
                </g>
              </g>
              <g id="Group_38658" data-name="Group 38658" transform="translate(11.664 4.972)">
                <g id="Group_38657" data-name="Group 38657">
                  <path id="_540089760" d="M210.787,222.832h-1.321a.166.166,0,0,1,0-.332h1.321a.168.168,0,0,1,.166.166A.164.164,0,0,1,210.787,222.832Z" transform="translate(-209.3 -222.5)" fill="#b1892e" fill-rule="evenodd"/>
                </g>
              </g>
              <g id="Group_38660" data-name="Group 38660" transform="translate(11.057 1.48)">
                <g id="Group_38659" data-name="Group 38659">
                  <path id="_540090000" d="M202.488,174.078a.063.063,0,0,1-.055-.028l-1.882-1.882a.083.083,0,0,1,.118-.118l1.882,1.882a.08.08,0,0,1,0,.118A.124.124,0,0,1,202.488,174.078Z" transform="translate(-200.525 -172.025)" fill="#376b8a" fill-rule="evenodd"/>
                </g>
              </g>
              <g id="Group_38662" data-name="Group 38662" transform="translate(11.763 1.473)">
                <g id="Group_38661" data-name="Group 38661">
                  <path id="_540088896" d="M212.1,173.39a.063.063,0,0,1-.055-.028l-1.294-1.294a.083.083,0,0,1,.118-.118l1.294,1.294a.08.08,0,0,1,0,.118A.085.085,0,0,1,212.1,173.39Z" transform="translate(-210.725 -171.925)" fill="#376b8a" fill-rule="evenodd"/>
                </g>
              </g>
              <g id="Group_38664" data-name="Group 38664" transform="translate(5.219 1.771)">
                <g id="Group_38663" data-name="Group 38663">
                  <path id="_540088872" d="M117.5,177.69a.063.063,0,0,1-.055-.028l-1.294-1.294a.083.083,0,0,1,.118-.118l1.294,1.294a.08.08,0,0,1,0,.118A.084.084,0,0,1,117.5,177.69Z" transform="translate(-116.125 -176.225)" fill="#376b8a" fill-rule="evenodd"/>
                </g>
              </g>
              <g id="Group_38666" data-name="Group 38666" transform="translate(2.997 8.68)">
                <g id="Group_38665" data-name="Group 38665">
                  <circle id="_540078144" cx="0.463" cy="0.463" r="0.463" fill="#6d6e71"/>
                </g>
              </g>
              <g id="Group_38668" data-name="Group 38668" transform="translate(20.899 8.68)">
                <g id="Group_38667" data-name="Group 38667">
                  <circle id="_540077712" cx="0.463" cy="0.463" r="0.463" fill="#6d6e71"/>
                </g>
              </g>
            </g>
            <g id="Group_38670" data-name="Group 38670" transform="translate(8.005 7.845)">
              <path id="_538467072" d="M156.4,249h.816v.816H156.4Z" transform="translate(-156.4 -249)" fill="#1f4966" fill-rule="evenodd"/>
              <path id="_538472112" d="M168.2,260.7h.816v.816H168.2Z" transform="translate(-167.384 -259.891)" fill="#1f4966" fill-rule="evenodd"/>
              <path id="_538466712" d="M180,249h.816v.816H180Z" transform="translate(-178.367 -249)" fill="#1f4966" fill-rule="evenodd"/>
              <path id="_538460592" d="M191.7,260.7h.816v.816H191.7Z" transform="translate(-189.258 -259.891)" fill="#1f4966" fill-rule="evenodd"/>
              <path id="_538446888" d="M203.5,249h.816v.816H203.5Z" transform="translate(-200.242 -249)" fill="#1f4966" fill-rule="evenodd"/>
              <path id="_538447224" d="M215.3,260.7h.816v.816H215.3Z" transform="translate(-211.226 -259.891)" fill="#1f4966" fill-rule="evenodd"/>
              <path id="_538446408" d="M227,249h.816v.816H227Z" transform="translate(-222.116 -249)" fill="#1f4966" fill-rule="evenodd"/>
              <path id="_538445520" d="M238.8,260.7h.816v.816H238.8Z" transform="translate(-233.1 -259.891)" fill="#1f4966" fill-rule="evenodd"/>
              <path id="_538445496" d="M262.4,260.7h.816v.816H262.4Z" transform="translate(-255.067 -259.891)" fill="#1f4966" fill-rule="evenodd"/>
              <path id="_538445736" d="M250.6,249h.816v.816H250.6Z" transform="translate(-244.084 -249)" fill="#1f4966" fill-rule="evenodd"/>
            </g>
          </g>
        </g>
      </g>
      <path id="Path_917" data-name="Path 917" d="M-20.8-20.8h34v34h-34Z" fill="none"/>
    </g>
    <g id="encrypted" transform="translate(2179.668 2050.855)">
      <path id="Path_918" data-name="Path 918" d="M41.332,2.139V6.694a6.429,6.429,0,0,1-1.454,3.684,13.112,13.112,0,0,1-4.656,3.714l-.186.093-.186-.093a13.112,13.112,0,0,1-4.656-3.714A6.429,6.429,0,0,1,28.74,6.694V2.139L31.8,0h6.466Z" transform="translate(0 0)" fill="#00358f"/>
      <path id="Path_919" data-name="Path 919" d="M262.286,2.139V6.694a6.429,6.429,0,0,1-1.454,3.684,13.112,13.112,0,0,1-4.656,3.714l-.186.093V0h3.233Z" transform="translate(-220.954)" fill="#012453"/>
      <path id="Path_920" data-name="Path 920" d="M96.083,60h-5.42L88.74,61.343v3.688c0,1.267,1.247,3.744,4.634,5.618,3.387-1.874,4.634-4.35,4.634-5.618V61.343Z" transform="translate(-58.338 -58.338)" fill="#00b3fe"/>
      <path id="Path_921" data-name="Path 921" d="M260.624,61.343v3.688c0,1.267-1.247,3.744-4.634,5.618V60h2.71Z" transform="translate(-220.954 -58.338)" fill="#0274f9"/>
      <path id="Path_922" data-name="Path 922" d="M81.63,45H75.949L73.74,46.542v3.9a5.2,5.2,0,0,0,1.126,2.826,11.4,11.4,0,0,0,3.722,3.156l.2.111.2-.111a11.4,11.4,0,0,0,3.722-3.156,5.2,5.2,0,0,0,1.126-2.826v-3.9Zm1.377,5.447c0,1.106-1.128,3.363-4.218,5.141-3.09-1.778-4.218-4.035-4.218-5.141V46.976l1.639-1.144h5.158l1.639,1.144Z" transform="translate(-43.753 -43.753)" fill="#eff5fa"/>
      <path id="Path_923" data-name="Path 923" d="M261.039,46.542v3.9a5.2,5.2,0,0,1-1.126,2.826,11.4,11.4,0,0,1-3.722,3.156l-.2.111v-.952c3.09-1.778,4.218-4.035,4.218-5.141V46.976l-1.639-1.144H255.99V45h2.84Z" transform="translate(-220.954 -43.753)" fill="#c6e1ec"/>
      <path id="Path_924" data-name="Path 924" d="M165.536,153.9l-2.653,2.727-.006.006-.675.693-1.973-1.845.568-.607,1.377,1.289.7-.721.006-.006,2.057-2.114Z" transform="translate(-127.847 -149.072)" fill="#eff5fa"/>
      <path id="Path_925" data-name="Path 925" d="M258.643,153.9l-2.653,2.727v-1.192l2.057-2.114Z" transform="translate(-220.954 -149.072)" fill="#c6e1ec"/>
    </g>
  </g>
</svg>
