<svg xmlns="http://www.w3.org/2000/svg" width="593.906" height="183" viewBox="0 0 593.906 183">
  <defs>
    <style>
      .cls-1 {
        fill: #5143d9;
      }

      .cls-1, .cls-2, .cls-3 {
        fill-rule: evenodd;
      }

      .cls-2 {
        fill: #fff;
      }

      .cls-3 {
        fill: #0b0a12;
      }
    </style>
  </defs>
  <path class="cls-1" d="M188,95.5A91.5,91.5,0,1,1,96.5,4,91.5,91.5,0,0,1,188,95.5Z" transform="translate(-5 -4)"/>
  <path class="cls-2" d="M155.286,95.6l2.191-2.195a1.655,1.655,0,1,0-2.339-2.343l-0.181.181-0.7-9.327,2.2-2.206a1.655,1.655,0,1,0-2.339-2.343l-0.192.192-0.833-11.044c6.042-5.71,10.829-10.255,11.912-11.34,4.282-4.29,2.932-10.791,2.273-11.45s-7.148-2.013-11.43,2.277c-1.083,1.085-5.62,5.88-11.32,11.933L133.5,57.1l0.192-.192a1.655,1.655,0,0,0-2.339-2.343l-2.2,2.206-9.31-.7,0.181-.181a1.655,1.655,0,0,0-2.339-2.343l-2.191,2.195L101.1,54.649l-3.228,3.234,26.286,7.59,7.539,6.113c-6.748,8.076-17.355,20.286-17.355,20.286l-14.263-1.683L97.9,92.366,108.182,98.7a2.384,2.384,0,0,0-.725,2.31c-1.976,1.98-1.12,3.762-1.12,3.762s1.779,0.858,3.756-1.122a2.372,2.372,0,0,0,2.3-.726l6.325,10.3,2.174-2.178-1.68-14.289s12.188-10.625,20.25-17.385l6.1,7.552,7.576,26.333,3.229-3.234ZM76.053,128.979c-4.932,3.458-9.955,6.758-15.072,9.839a170.777,170.777,0,0,1-15.63,8.419c-2.647,1.238-5.316,2.37-7.983,3.348a56.035,56.035,0,0,1-7.9,2.309,26.285,26.285,0,0,1-3.684.5,12.123,12.123,0,0,1-3.016-.149,4.517,4.517,0,0,1-.944-0.307,0.833,0.833,0,0,1-.355-0.3,0.1,0.1,0,0,1,.086-0.129,0.131,0.131,0,0,0,.114-0.125c0.025-.158-0.024-0.7.057-1.49,0.031-.31.082-0.658,0.145-1.022A78.919,78.919,0,0,1,11.25,127.661c-0.943,2.294-1.821,4.648-2.611,7.085a56.872,56.872,0,0,0-2.406,10.529,31.559,31.559,0,0,0-.151,6.2,21.625,21.625,0,0,0,.579,3.533,17.131,17.131,0,0,0,1.42,3.8,14.773,14.773,0,0,0,6.237,6.345,16.253,16.253,0,0,0,3.84,1.407,19.692,19.692,0,0,0,3.531.437,26.18,26.18,0,0,0,6.038-.581,39.668,39.668,0,0,0,5.178-1.467A67.877,67.877,0,0,0,42,160.877c2.853-1.521,5.578-3.157,8.222-4.871A179.48,179.48,0,0,0,65.29,144.982c4.8-3.881,9.427-7.931,13.913-12.1a349.491,349.491,0,0,0,25.375-26.344A346.793,346.793,0,0,1,76.053,128.979Z" transform="translate(-5 -4)"/>
  <path id="Booking" class="cls-3" d="M250.9,128q11,0,17-5.4a17.625,17.625,0,0,0,6-13.7,16.9,16.9,0,0,0-3.9-11.05,16.694,16.694,0,0,0-9.9-5.95,17.7,17.7,0,0,0,8.65-5.35Q272.3,82.6,272.3,76a16.459,16.459,0,0,0-5.75-12.95Q260.8,58,249.9,58H221.8v70h29.1ZM234.6,68.3h13.2q5.7,0,8.55,2.55a8.855,8.855,0,0,1,2.85,6.95,8.865,8.865,0,0,1-2.9,7.1q-2.9,2.5-8.3,2.5H234.6V68.3Zm0,28.7h14.1q5.6,0,8.9,2.8a9.562,9.562,0,0,1,3.3,7.7,9.2,9.2,0,0,1-3.15,7.45q-3.15,2.65-8.85,2.65H234.6V97Zm86.9,28.9a24.145,24.145,0,0,0,9.15-9.15A26.8,26.8,0,0,0,334,103.2a26.8,26.8,0,0,0-3.35-13.55,24.25,24.25,0,0,0-9.1-9.15,26.863,26.863,0,0,0-25.8,0,24.572,24.572,0,0,0-9.15,9.15,26.462,26.462,0,0,0-3.4,13.55,26.767,26.767,0,0,0,3.35,13.55,24.207,24.207,0,0,0,9.1,9.15A26.961,26.961,0,0,0,321.5,125.9Zm-21.55-11.55q-3.652-3.75-3.65-11.15t3.65-11.15a11.909,11.909,0,0,1,17.35,0Q321,95.8,321,103.2t-3.7,11.15a11.834,11.834,0,0,1-8.7,3.75A11.664,11.664,0,0,1,299.95,114.349ZM382.3,125.9a24.131,24.131,0,0,0,9.15-9.15,26.787,26.787,0,0,0,3.35-13.55,26.79,26.79,0,0,0-3.35-13.55,24.235,24.235,0,0,0-9.1-9.15,26.863,26.863,0,0,0-25.8,0,24.586,24.586,0,0,0-9.15,9.15A26.472,26.472,0,0,0,344,103.2a26.777,26.777,0,0,0,3.35,13.55,24.221,24.221,0,0,0,9.1,9.15A26.961,26.961,0,0,0,382.3,125.9Zm-21.55-11.55q-3.651-3.75-3.65-11.15t3.65-11.15a11.909,11.909,0,0,1,17.35,0q3.7,3.75,3.7,11.15t-3.7,11.15a11.831,11.831,0,0,1-8.7,3.75A11.667,11.667,0,0,1,360.748,114.349ZM419.2,128V103.1L439.3,128h16l-23.6-27L452,78.4H436.8L419.2,98.5V56H406.4v72h12.8Zm56.85-59.4a6.938,6.938,0,0,0,2.25-5.3,6.786,6.786,0,0,0-2.25-5.25,9.09,9.09,0,0,0-11.5,0,6.786,6.786,0,0,0-2.25,5.25,6.938,6.938,0,0,0,2.25,5.3A8.923,8.923,0,0,0,476.047,68.6ZM476.7,128V78.4H463.9V128h12.8Zm26.4,0V102.4q0-6.8,3.45-10.6A11.417,11.417,0,0,1,515.4,88q5.5,0,8.1,3.4t2.6,9.8V128h12.8V100q0-11.2-5.1-17t-14.3-5.8a19.606,19.606,0,0,0-10.25,2.6,17.447,17.447,0,0,0-6.65,7l-1-8.4H490.3V128h12.8Zm79.949-17.2a17.035,17.035,0,0,0,6.95-6.5,18.541,18.541,0,0,0,.4-17.5l8.5-.6V78.4H580.1a24.523,24.523,0,0,0-7.8-1.2,22.893,22.893,0,0,0-10.9,2.4A17.258,17.258,0,0,0,552,95.2a16.649,16.649,0,0,0,5.8,13.1l-8.7,9.2v2.3a18.1,18.1,0,0,0,2.55,2.1,21.868,21.868,0,0,0,3.45,1.9q-6.5,4.9-6.5,11.6a12.969,12.969,0,0,0,6.5,11.85q6.5,3.95,17.1,3.95,7.8,0,12.8-2.45a17.2,17.2,0,0,0,7.4-6.4,15.829,15.829,0,0,0,2.4-8.35q0-6.7-4.5-10.5t-14.4-4.7q-6.5-.6-9.4-1.2a17.672,17.672,0,0,1-4.6-1.5l3.7-3.7a26.717,26.717,0,0,0,6.7.8A22.739,22.739,0,0,0,583.045,110.8Zm-17.35-9.5a8.45,8.45,0,0,1,0-12,9.918,9.918,0,0,1,6.6-2.1,9.81,9.81,0,0,1,6.45,2.1,8.334,8.334,0,0,1,0,12,9.81,9.81,0,0,1-6.45,2.1A9.918,9.918,0,0,1,565.7,101.3Zm-4.15,28.9a11.442,11.442,0,0,1,4.15-3.5q3.5,0.6,7.6.9,5.8,0.4,7.75,2.2a5.869,5.869,0,0,1,1.95,4.5,5.989,5.989,0,0,1-3,5.25,14.089,14.089,0,0,1-7.8,1.95,17.692,17.692,0,0,1-8.45-1.85,5.954,5.954,0,0,1-3.45-5.55A7.005,7.005,0,0,1,561.545,130.2Z" transform="translate(-5 -4)"/>
</svg>
